<?xml version="1.0" encoding="UTF-8" standalone="no"?>
<!-- Created with Inkscape (http://www.inkscape.org/) -->

<svg
   xmlns:dc="http://purl.org/dc/elements/1.1/"
   xmlns:cc="http://creativecommons.org/ns#"
   xmlns:rdf="http://www.w3.org/1999/02/22-rdf-syntax-ns#"
   xmlns:svg="http://www.w3.org/2000/svg"
   xmlns="http://www.w3.org/2000/svg"
   xmlns:sodipodi="http://sodipodi.sourceforge.net/DTD/sodipodi-0.dtd"
   xmlns:inkscape="http://www.inkscape.org/namespaces/inkscape"
   version="1.1"
   id="svg2"
   xml:space="preserve"
   width="692.90088"
   height="240.11333"
   viewBox="0 0 692.90088 240.11333"
   sodipodi:docname="alt-logo-wide.svg"
   inkscape:version="0.92.3 (2405546, 2018-03-11)"><metadata
     id="metadata8"><rdf:RDF><cc:Work
         rdf:about=""><dc:format>image/svg+xml</dc:format><dc:type
           rdf:resource="http://purl.org/dc/dcmitype/StillImage" /><dc:title></dc:title></cc:Work></rdf:RDF></metadata><defs
     id="defs6"><clipPath
       clipPathUnits="userSpaceOnUse"
       id="clipPath30"><path
         d="M 0,576 H 576 V 0 H 0 Z"
         id="path28"
         inkscape:connector-curvature="0" /></clipPath></defs><sodipodi:namedview
     pagecolor="#ffffff"
     bordercolor="#666666"
     borderopacity="1"
     objecttolerance="10"
     gridtolerance="10"
     guidetolerance="10"
     inkscape:pageopacity="0"
     inkscape:pageshadow="2"
     inkscape:window-width="1853"
     inkscape:window-height="1029"
     id="namedview4"
     showgrid="false"
     inkscape:zoom="0.30729167"
     inkscape:cx="352.20805"
     inkscape:cy="105.57974"
     inkscape:window-x="67"
     inkscape:window-y="27"
     inkscape:window-maximized="1"
     inkscape:current-layer="g10" /><g
     id="g10"
     inkscape:groupmode="layer"
     inkscape:label="ALTlogo_Horizontal_Reverse_RGB"
     transform="matrix(1.3333333,0,0,-1.3333333,-38.300421,518.53359)"><g
       id="g12"
       transform="translate(262.3996,248.6924)"><path
         d="m 0,0 v -39.292 h 19.592 v 6.64 H 7.51 V 0 Z"
         style="fill:#ffffff;fill-opacity:1;fill-rule:nonzero;stroke:none"
         id="path14"
         inkscape:connector-curvature="0" /></g><g
       id="g16"
       transform="translate(295.506,248.6924)"><path
         d="m 0,0 -9.743,-39.292 h 7.239 l 2.122,8.272 h 10.393 l 1.906,-8.272 h 7.184 L 9.629,0 Z M 4.68,-8.491 H 4.786 L 8.434,-24.38 H 0.978 Z"
         style="fill:#ffffff;fill-opacity:1;fill-rule:nonzero;stroke:none"
         id="path18"
         inkscape:connector-curvature="0" /></g><g
       id="g20"
       transform="translate(339.2559,248.6924)"><path
         d="M 0,0 V -23.291 H -0.108 L -10.559,0 h -8.217 v -39.292 h 6.857 v 25.362 h 0.108 L -0.328,-39.292 H 6.857 V 0 Z"
         style="fill:#ffffff;fill-opacity:1;fill-rule:nonzero;stroke:none"
         id="path22"
         inkscape:connector-curvature="0" /></g><g
       id="g24"><g
         id="g26"
         clip-path="url(#clipPath30)"><g
           id="g32"
           transform="translate(354.5977,248.6929)"><path
             d="m 0,0 h 10.45 c 8.597,0 13.386,-3.699 13.713,-13.605 V -25.687 C 23.836,-35.59 19.047,-39.292 10.45,-39.292 H 0 Z m 7.51,-32.652 h 2.612 c 4.136,0 6.529,1.96 6.529,7.838 v 10.339 c 0,5.551 -1.848,7.835 -6.529,7.835 H 7.51 Z"
             style="fill:#ffffff;fill-opacity:1;fill-rule:nonzero;stroke:none"
             id="path34"
             inkscape:connector-curvature="0" /></g><g
           id="g36"
           transform="translate(398.0499,248.6924)"><path
             d="m 0,0 v -6.637 h 8.762 v -32.655 h 7.51 v 32.655 h 8.762 V 0 Z"
             style="fill:#ffffff;fill-opacity:1;fill-rule:nonzero;stroke:none"
             id="path38"
             inkscape:connector-curvature="0" /></g><g
           id="g40"
           transform="translate(446.6431,209.4019)"><path
             d="m 0,0 -6.531,16.001 h -3.591 V 0 h -7.51 v 39.292 h 10.884 c 9.033,0 13.334,-4.353 13.334,-11.754 0,-4.9 -1.743,-8.437 -5.933,-10.014 L 8.055,0 Z m -10.122,22.204 h 3.864 c 3.32,0 5.334,1.632 5.334,5.442 0,3.808 -2.014,5.442 -5.334,5.442 h -3.864 z"
             style="fill:#ffffff;fill-opacity:1;fill-rule:nonzero;stroke:none"
             id="path42"
             inkscape:connector-curvature="0" /></g><g
           id="g44"
           transform="translate(467.3551,248.6929)"><path
             d="m 0,0 v -27.481 c 0,-3.756 1.632,-5.715 5.279,-5.715 3.645,0 5.331,1.959 5.331,5.715 V 0 h 7.513 v -27.538 c 0,-8.65 -5.117,-12.298 -12.844,-12.298 -7.729,0 -12.789,3.648 -12.789,12.298 L -7.51,0 Z"
             style="fill:#ffffff;fill-opacity:1;fill-rule:nonzero;stroke:none"
             id="path46"
             inkscape:connector-curvature="0" /></g><g
           id="g48"
           transform="translate(509.4593,237.755)"><path
             d="m 0,0 c -1.252,3.699 -2.884,5.279 -5.496,5.279 -2.667,0 -4.136,-1.634 -4.136,-4.301 0,-5.929 16.76,-6.366 16.76,-18.664 0,-6.749 -4.626,-11.212 -12.516,-11.212 -6.095,0 -10.829,3.32 -12.843,11.049 l 7.401,1.577 c 0.87,-4.734 3.591,-6.42 5.822,-6.42 2.612,0 4.626,1.74 4.626,4.678 0,7.401 -16.762,7.51 -16.762,18.505 0,6.748 4.027,10.992 11.81,10.992 6.694,0 10.776,-3.973 12.082,-9.524 z"
             style="fill:#ffffff;fill-opacity:1;fill-rule:nonzero;stroke:none"
             id="path50"
             inkscape:connector-curvature="0" /></g><g
           id="g52"
           transform="translate(519.5785,248.6924)"><path
             d="m 0,0 v -6.637 h 8.764 v -32.655 h 7.51 v 32.655 h 8.76 V 0 Z"
             style="fill:#ffffff;fill-opacity:1;fill-rule:nonzero;stroke:none"
             id="path54"
             inkscape:connector-curvature="0" /></g><g
           id="g56"
           transform="translate(257.2674,269.1609)"><path
             d="m 0,0 0.416,3.013 3.513,2.248 8.473,21.045 7.574,1.423 8.514,-22.532 3.232,-2.029 -0.26,-3.212 H 15.631 l 0.352,3.013 3.621,2.272 -0.828,2.444 H 10.218 L 9.41,5.241 13.535,3.232 13.207,0 Z m 11.746,12.247 h 5.481 l -2.775,8.124 z"
             style="fill:#ffffff;fill-opacity:1;fill-rule:nonzero;stroke:none"
             id="path58"
             inkscape:connector-curvature="0" /></g><g
           id="g60"
           transform="translate(292.4168,269.1614)"><path
             d="M 0,0 0.349,3.013 3.844,4.74 v 17.048 l -3.756,2.184 0.415,3.209 h 16.22 l -0.457,-3.209 -4.28,-2.14 V 4.365 L 17.883,3.885 21.68,9.89 25.305,9.387 24.277,0 Z"
             style="fill:#ffffff;fill-opacity:1;fill-rule:nonzero;stroke:none"
             id="path62"
             inkscape:connector-curvature="0" /></g><g
           id="g64"
           transform="translate(320.8859,269.1614)"><path
             d="M 0,0 0.348,3.013 3.844,4.74 v 17.048 l -3.759,2.184 0.418,3.209 h 16.22 l -0.457,-3.209 -4.28,-2.14 V 4.365 L 17.88,3.885 21.677,9.89 25.305,9.387 24.277,0 Z"
             style="fill:#ffffff;fill-opacity:1;fill-rule:nonzero;stroke:none"
             id="path66"
             inkscape:connector-curvature="0" /></g><g
           id="g68"
           transform="translate(349.2675,293.177)"><path
             d="m 0,0 0.413,3.144 h 25.612 l -0.656,-9.126 -3.733,0.566 -1.812,4.804 H 12.291 V -8.47 l 2.904,0.237 0.7,0.044 5.542,0.46 -0.717,-6.026 -5.264,0.961 -0.697,0.131 -2.468,0.437 v -7.205 l 7.925,-0.873 3.189,5.633 3.601,-0.372 -0.653,-8.973 H 0.349 l 0.219,3.012 3.581,1.727 v 17.749 z"
             style="fill:#ffffff;fill-opacity:1;fill-rule:nonzero;stroke:none"
             id="path70"
             inkscape:connector-curvature="0" /></g><g
           id="g72"
           transform="translate(381.7697,281.8238)"><path
             d="m 0,0 c 0,1.892 0.312,3.661 0.937,5.305 0.625,1.645 1.479,3.057 2.556,4.236 1.076,1.178 2.323,2.19 3.743,3.036 1.42,0.842 2.928,1.472 4.52,1.888 1.593,0.415 3.212,0.622 4.859,0.622 1.35,0 2.649,-0.083 3.885,-0.24 1.237,-0.16 2.096,-0.295 2.577,-0.406 0.48,-0.108 1.272,-0.338 2.38,-0.686 L 27.114,13.207 26.221,3.625 22.116,3.952 21.22,8.713 c -0.728,0.741 -1.523,1.319 -2.39,1.735 -0.867,0.415 -1.947,0.622 -3.242,0.622 -2.184,0 -3.842,-0.679 -4.978,-2.032 C 9.474,7.685 8.909,5.517 8.909,2.533 c 0,-3.364 0.625,-6.083 1.877,-8.166 1.249,-2.081 2.925,-3.121 5.021,-3.121 1.588,0 2.933,0.408 4.038,1.221 v 2.623 l -4.825,1.394 0.503,3.756 h 14.408 l -0.457,-3.405 -2.293,-1.572 v -5.897 c -0.947,-0.609 -2.597,-1.187 -4.946,-1.734 -2.349,-0.545 -4.378,-0.819 -6.08,-0.819 -5.356,0 -9.386,1.116 -12.094,3.351 C 1.353,-7.6 0,-4.322 0,0"
             style="fill:#ffffff;fill-opacity:1;fill-rule:nonzero;stroke:none"
             id="path74"
             inkscape:connector-curvature="0" /></g><g
           id="g76"
           transform="translate(415.3669,293.0459)"><path
             d="M 0,0 0.545,3.273 H 16.264 L 15.851,0 12.203,-1.464 v -6.177 h 9.758 v 6.025 L 18.009,0 18.383,3.273 H 34.278 L 33.86,0 30.194,-1.464 v -17.813 l 3.909,-1.376 -0.308,-3.232 H 18.009 l 0.307,3.013 3.645,1.724 v 6.026 h -9.758 v -6.155 l 3.952,-1.376 -0.395,-3.232 H 0.108 l 0.264,3.013 3.689,1.724 v 17.532 z"
             style="fill:#ffffff;fill-opacity:1;fill-rule:nonzero;stroke:none"
             id="path78"
             inkscape:connector-curvature="0" /></g><g
           id="g80"
           transform="translate(454.6388,293.177)"><path
             d="m 0,0 0.413,3.144 h 25.609 l -0.653,-9.126 -3.735,0.566 -1.813,4.804 h -7.53 V -8.47 l 2.904,0.237 0.697,0.044 5.545,0.46 -0.717,-6.026 -5.264,0.961 -0.697,0.131 -2.468,0.437 v -7.205 l 7.925,-0.873 3.189,5.633 3.601,-0.372 -0.656,-8.973 H 0.349 l 0.219,3.012 3.578,1.727 v 17.749 z"
             style="fill:#ffffff;fill-opacity:1;fill-rule:nonzero;stroke:none"
             id="path82"
             inkscape:connector-curvature="0" /></g><g
           id="g84"
           transform="translate(486.7698,292.8931)"><path
             d="M 0,0 0.305,3.426 H 9.911 L 21.525,-12.115 V -1.464 L 17.42,0.152 17.944,3.426 H 30.545 L 29.998,0.152 26.329,-1.311 v -22.094 l -6.177,-0.96 -11.199,14.147 v -8.906 l 3.929,-1.376 -0.284,-3.232 H -0.088 l 0.22,3.012 3.733,1.725 v 17.162 z"
             style="fill:#ffffff;fill-opacity:1;fill-rule:nonzero;stroke:none"
             id="path86"
             inkscape:connector-curvature="0" /></g><g
           id="g88"
           transform="translate(520.283,292.9367)"><path
             d="M 0,0 0.7,3.405 H 15.128 L 14.516,0 l -1.634,-1.332 3.253,-6.309 3.296,6.244 -2.163,1.353 0.524,3.428 h 10.326 l -0.521,-3.428 -2.491,-1.309 -6.898,-11.55 v -6.046 l 3.645,-1.771 -0.284,-3.054 H 6.242 l 0.395,3.01 3.472,1.727 v 5.85 L 2.925,-1.353 Z"
             style="fill:#ffffff;fill-opacity:1;fill-rule:nonzero;stroke:none"
             id="path90"
             inkscape:connector-curvature="0" /></g><g
           id="g92"
           transform="translate(230.8741,224.6122)"><path
             d="m 0,0 -91.044,158.237 c -2.213,3.846 -5.532,6.051 -9.106,6.051 -3.575,0 -6.894,-2.205 -9.107,-6.051 L -200.298,0 c -2.213,-3.842 -2.452,-7.824 -0.66,-10.923 1.791,-3.097 5.361,-4.874 9.795,-4.874 H -9.138 c 4.434,0 8.005,1.777 9.796,4.874 C 2.451,-7.824 2.211,-3.844 0,0 m -102.371,154.274 c 0.822,1.43 1.708,2.07 2.221,2.07 0.513,0 1.399,-0.64 2.221,-2.068 L -6.885,-3.961 c 0.342,-0.595 0.554,-1.129 0.674,-1.585 -7.448,5.216 -17.64,11.975 -27.01,17.334 -23.653,13.526 -44.268,21.028 -61.702,24.827 14.298,10.464 31.028,20.357 49.281,26.786 l -4.023,6.989 c -7.411,-2.67 -14.863,-5.981 -22.323,-9.9 -2.076,13.73 -13.953,24.287 -28.254,24.287 -14.91,0 -27.184,-11.481 -28.458,-26.068 -7.577,3.932 -15.311,7.12 -23.17,9.534 z m -18.406,-99.978 c -0.058,0.627 -0.096,1.262 -0.096,1.906 0,11.39 9.244,20.631 20.631,20.631 11.367,0 20.592,-9.206 20.627,-20.565 -7.51,-4.367 -15.02,-9.349 -22.489,-14.95 -6.082,4.852 -12.315,9.182 -18.673,12.978 m -73.304,-61.239 c -0.262,0.45 -0.156,1.548 0.668,2.982 l 37.476,65.136 c 37.055,-10.765 64.688,-37.829 81.931,-59.788 2.446,-3.112 4.748,-6.205 6.911,-9.24 h -124.068 c -1.654,0 -2.657,0.457 -2.918,0.91 m 136.671,-0.91 c -3.087,4.517 -6.476,9.206 -10.215,13.979 -5.559,7.09 -11.331,13.654 -17.291,19.688 26.213,-7.856 50.429,-21.77 68.005,-33.667 z"
             style="fill:#ffffff;fill-opacity:1;fill-rule:nonzero;stroke:none"
             id="path94"
             inkscape:connector-curvature="0" /></g></g></g></g></svg>