<?xml version="1.0" encoding="UTF-8" standalone="no"?>
<!-- Created with Inkscape (http://www.inkscape.org/) -->

<svg
   xmlns:dc="http://purl.org/dc/elements/1.1/"
   xmlns:cc="http://creativecommons.org/ns#"
   xmlns:rdf="http://www.w3.org/1999/02/22-rdf-syntax-ns#"
   xmlns:svg="http://www.w3.org/2000/svg"
   xmlns="http://www.w3.org/2000/svg"
   xmlns:sodipodi="http://sodipodi.sourceforge.net/DTD/sodipodi-0.dtd"
   xmlns:inkscape="http://www.inkscape.org/namespaces/inkscape"
   width="35.26926mm"
   height="22.167257mm"
   viewBox="0 0 35.26926 22.167257"
   version="1.1"
   id="svg3831"
   inkscape:version="0.92.2 (5c3e80d, 2017-08-06)"
   sodipodi:docname="white_icon.svg">
  <defs
     id="defs3825" />
  <sodipodi:namedview
     id="base"
     pagecolor="#ffffff"
     bordercolor="#666666"
     borderopacity="1.0"
     inkscape:pageopacity="0.0"
     inkscape:pageshadow="2"
     inkscape:zoom="3.959798"
     inkscape:cx="15.805872"
     inkscape:cy="4.6056246"
     inkscape:document-units="mm"
     inkscape:current-layer="layer1"
     showgrid="false"
     inkscape:window-width="1920"
     inkscape:window-height="1028"
     inkscape:window-x="0"
     inkscape:window-y="24"
     inkscape:window-maximized="1" />
  <metadata
     id="metadata3828">
    <rdf:RDF>
      <cc:Work
         rdf:about="">
        <dc:format>image/svg+xml</dc:format>
        <dc:type
           rdf:resource="http://purl.org/dc/dcmitype/StillImage" />
        <dc:title></dc:title>
      </cc:Work>
    </rdf:RDF>
  </metadata>
  <g
     inkscape:label="Layer 1"
     inkscape:groupmode="layer"
     id="layer1"
     transform="translate(-81.395371,-96.928163)">
    <path
       d="m 103.22212,109.28494 h -1.05833 v 1.39375 h 1.05833 v -1.39375"
       style="fill:#ffffff;fill-opacity:1;fill-rule:nonzero;stroke:none;stroke-width:0.03527778"
       id="path34"
       inkscape:connector-curvature="0" />
    <path
       d="M 96.320763,111.73703 H 95.26243 v 1.40793 h 1.058333 v -1.40793"
       style="fill:#ffffff;fill-opacity:1;fill-rule:nonzero;stroke:none;stroke-width:0.03527778"
       id="path36"
       inkscape:connector-curvature="0" />
    <path
       d="M 96.320763,114.2033 H 95.26243 v 1.32524 h 1.058333 v -1.32524"
       style="fill:#ffffff;fill-opacity:1;fill-rule:nonzero;stroke:none;stroke-width:0.03527778"
       id="path38"
       inkscape:connector-curvature="0" />
    <path
       d="m 115.60441,100.8417 -4.54554,-2.55006 c 1.50742,-0.13906 3.02753,-0.22091 4.5466,-0.23276 z m -0.007,17.18839 h -5.58628 v -1.44322 h -1.05833 v 1.44322 h -5.73098 v -1.44322 h -1.05833 v 1.44322 h -5.843027 v -1.44322 H 95.26243 v 1.44322 h -5.6745 v -1.44322 h -1.058334 v 1.44322 h -6.323965 l 0.08326,-0.079 c 0.06131,-0.0581 2.410742,-2.26095 6.240709,-4.98574 v 0.17956 h 1.058334 v -0.91916 c 1.674177,-1.14871 3.582775,-2.35987 5.6745,-3.52432 v 1.97721 h 1.058333 v -2.55365 c 1.834162,-0.97687 3.793033,-1.90542 5.843023,-2.71681 v 2.81838 h 1.05833 v -3.22337 c 1.8511,-0.6846 3.76961,-1.26682 5.73099,-1.69803 v 2.45745 h 1.05833 v -2.67423 c 1.83765,-0.34946 3.70702,-0.56003 5.59227,-0.59365 z m -33.144005,-10.5803 5.674748,4.50924 c -2.637437,1.86118 -4.609677,3.49895 -5.674748,4.425 z m 6.075891,-3.48104 v 6.95728 l -5.671573,-4.5066 c 0.985414,-0.47251 2.975716,-1.3903 5.671573,-2.45068 z m 1.058334,0.48024 5.230917,3.29752 c -1.903906,1.05682 -3.661056,2.15276 -5.230917,3.20738 z m 5.6745,-2.85556 v 5.18167 l -5.315937,-3.35125 c 1.593426,-0.59915 3.381868,-1.22576 5.315937,-1.83042 z m 1.058333,0.32121 5.025147,2.6895 c -1.75024,0.71134 -3.432002,1.50319 -5.025147,2.33398 z m 5.843027,-2.18433 v 4.11109 l -5.175253,-2.76959 c 1.645813,-0.48009 3.380073,-0.93623 5.175253,-1.3415 z m 1.05833,0.30028 4.78028,2.41113 c -1.62997,0.39123 -3.22806,0.88085 -4.78028,1.44198 z m 5.73098,-1.5077 v 3.21317 l -4.80977,-2.42605 c 1.57042,-0.31214 3.17969,-0.58015 4.80977,-0.78712 z m 1.05833,0.39465 4.55264,2.55404 c -1.53212,0.0776 -3.05435,0.26515 -4.55264,0.54254 z m 5.52665,-1.98935 C 98.68822,97.05816 81.852466,105.73 81.682391,105.8178 l -0.28702,0.14757 0.0047,13.12305 35.260559,0.007 0.004,-22.163257 -1.12606,-0.004"
       style="fill:#ffffff;fill-opacity:1;fill-rule:nonzero;stroke:none;stroke-width:0.03527778"
       id="path40"
       inkscape:connector-curvature="0" />
    <path
       d="m 110.01143,114.2033 h -1.05833 v 1.32524 h 1.05833 v -1.32524"
       style="fill:#ffffff;fill-opacity:1;fill-rule:nonzero;stroke:none;stroke-width:0.03527778"
       id="path42"
       inkscape:connector-curvature="0" />
    <path
       d="m 103.22212,114.2033 h -1.05833 v 1.32524 h 1.05833 v -1.32524"
       style="fill:#ffffff;fill-opacity:1;fill-rule:nonzero;stroke:none;stroke-width:0.03527778"
       id="path44"
       inkscape:connector-curvature="0" />
    <path
       d="m 89.58793,114.2033 h -1.058334 v 1.32524 h 1.058334 v -1.32524"
       style="fill:#ffffff;fill-opacity:1;fill-rule:nonzero;stroke:none;stroke-width:0.03527778"
       id="path46"
       inkscape:connector-curvature="0" />
    <path
       d="m 103.22212,111.73703 h -1.05833 v 1.40793 h 1.05833 v -1.40793"
       style="fill:#ffffff;fill-opacity:1;fill-rule:nonzero;stroke:none;stroke-width:0.03527778"
       id="path48"
       inkscape:connector-curvature="0" />
    <path
       d="m 110.01143,111.73703 h -1.05833 v 1.40793 h 1.05833 v -1.40793"
       style="fill:#ffffff;fill-opacity:1;fill-rule:nonzero;stroke:none;stroke-width:0.03527778"
       id="path50"
       inkscape:connector-curvature="0" />
    <path
       d="m 110.01143,109.28494 h -1.05833 v 1.39375 h 1.05833 v -1.39375"
       style="fill:#ffffff;fill-opacity:1;fill-rule:nonzero;stroke:none;stroke-width:0.03527778"
       id="path52"
       inkscape:connector-curvature="0" />
    <path
       d="m 110.01143,106.821 h -1.05833 v 1.40561 h 1.05833 V 106.821"
       style="fill:#ffffff;fill-opacity:1;fill-rule:nonzero;stroke:none;stroke-width:0.03527778"
       id="path54"
       inkscape:connector-curvature="0" />
  </g>
</svg>
